<svg height="407.313" viewBox="0 0 405.82 305.485" width="541.093" xmlns="http://www.w3.org/2000/svg" xmlns:xlink="http://www.w3.org/1999/xlink"><defs><style>*{stroke-linecap:butt;stroke-linejoin:round}</style></defs><g id="figure_1"><path d="M0 305.485h405.82V0H0z" fill="none" id="patch_1"/><g id="axes_1"><path d="M41.5 278.337h357.12V12.225H41.5z" fill="none" id="patch_2"/><g id="matplotlib.axis_1"><g id="xtick_1"><g id="line2d_1"><defs><path d="M0 0v3.5" id="m33cc09b060" stroke="#969696" stroke-width=".4"/></defs><use x="41.5" xlink:href="#m33cc09b060" y="278.337" fill="#969696" stroke="#969696" stroke-width=".4"/></g><g transform="matrix(.14 0 0 -.14 37.607 295.386)" fill="#969696" id="text_1"><defs><path d="M42.484 34.188q0 14.109-3.734 21.156-3.734 7.062-10.969 7.062-7.078 0-10.89-7.062-3.797-7.047-3.797-21.157 0-13.671 3.75-20.937Q20.609 6 27.78 6q7.235 0 10.969 7 3.734 7.016 3.734 21.188zm9.422 0q0-17.297-6.25-26.704-6.25-9.39-17.875-9.39-12.062 0-18.062 9.734-6 9.75-6 26.36 0 17.03 6.14 26.578 6.157 9.547 17.922 9.547 11.625 0 17.875-9.5t6.25-26.626z" id="HelveticaWorld-Regular-48"/></defs><use xlink:href="#HelveticaWorld-Regular-48"/></g></g><g id="xtick_2"><use x="106.431" xlink:href="#m33cc09b060" y="278.337" fill="#969696" stroke="#969696" stroke-width=".4" id="line2d_2"/><g transform="matrix(.14 0 0 -.14 98.646 295.386)" fill="#969696" id="text_2"><defs><path d="M35.89 0h-9.374v49.906H10.109v6.985q8.594.28 12.782 2.75Q27.094 62.109 29 70.313h6.89z" id="HelveticaWorld-Regular-49"/></defs><use xlink:href="#HelveticaWorld-Regular-49"/><use x="55.615" xlink:href="#HelveticaWorld-Regular-48"/></g></g><g id="xtick_3"><use x="171.362" xlink:href="#m33cc09b060" y="278.337" fill="#969696" stroke="#969696" stroke-width=".4" id="line2d_3"/><g transform="matrix(.14 0 0 -.14 163.577 295.386)" fill="#969696" id="text_3"><defs><path d="M4.39 45.125q0 12.39 6.391 18.781 6.406 6.407 17.938 6.407 9.656 0 15.812-5.86 6.157-5.86 6.157-15.14 0-7.22-3.547-12.188-3.532-4.953-10.422-8.703l-12.11-6.64Q13.922 15.921 12.5 8.296h38.188V0H2.593q.39 9.906 4.297 16.5 3.906 6.594 12.203 11.375l12.593 7.328q5.032 2.89 7.329 5.984 2.297 3.094 2.297 8.516 0 5.375-3.766 9.031-3.75 3.672-10.156 3.672-7.078 0-10.594-4.672-3.516-4.656-3.61-12.609z" id="HelveticaWorld-Regular-50"/></defs><use xlink:href="#HelveticaWorld-Regular-50"/><use x="55.615" xlink:href="#HelveticaWorld-Regular-48"/></g></g><g id="xtick_4"><use x="236.293" xlink:href="#m33cc09b060" y="278.337" fill="#969696" stroke="#969696" stroke-width=".4" id="line2d_4"/><g transform="matrix(.14 0 0 -.14 228.507 295.386)" fill="#969696" id="text_4"><defs><path d="M22.406 39.984q2.203-.187 4.594-.187 6.203 0 9.781 2.86 3.594 2.859 3.594 8.656 0 4.687-3.344 7.89-3.343 3.203-9.64 3.203-6.985 0-10.235-4.11-3.234-4.093-3.437-10.983h-8.64q0 10.984 5.765 16.984 5.765 6.016 16.937 6.016 9.922 0 15.828-5.11 5.907-5.094 5.907-13.39 0-10.704-9.032-14.5v-.204q11.72-4 11.72-16.406 0-9.906-6.595-16.265-6.593-6.344-18.703-6.344-9.906 0-16.312 5.203Q4.204 8.5 3.422 21.484H12.5q.203-8.109 4-11.797Q20.313 6 27.484 6q6.938 0 11.141 3.86 4.203 3.859 4.203 9.718 0 6.406-4.016 9.672-4 3.266-12.39 3.266-2 0-4.016-.094z" id="HelveticaWorld-Regular-51"/></defs><use xlink:href="#HelveticaWorld-Regular-51"/><use x="55.615" xlink:href="#HelveticaWorld-Regular-48"/></g></g><g id="xtick_5"><use x="301.224" xlink:href="#m33cc09b060" y="278.337" fill="#969696" stroke="#969696" stroke-width=".4" id="line2d_5"/><g transform="matrix(.14 0 0 -.14 293.438 295.386)" fill="#969696" id="text_5"><defs><path d="M10.594 24.703h22.61v31.89h-.188zM42 17.093V0h-8.797v17.094H2.484v8.593L34.72 70.314H42v-45.61h10.297v-7.61z" id="HelveticaWorld-Regular-52"/></defs><use xlink:href="#HelveticaWorld-Regular-52"/><use x="55.615" xlink:href="#HelveticaWorld-Regular-48"/></g></g><g id="xtick_6"><use x="366.155" xlink:href="#m33cc09b060" y="278.337" fill="#969696" stroke="#969696" stroke-width=".4" id="line2d_6"/><g transform="matrix(.14 0 0 -.14 358.37 295.386)" fill="#969696" id="text_6"><defs><path d="M14.703 40.922q5.813 4.39 13.625 4.39 9.469 0 16.281-6.296 6.813-6.297 6.813-16.22 0-10.78-6.578-17.796-6.563-7-18.422-7-10.313 0-16.266 5.047Q4.203 8.109 3.22 17.39h9.094q.671-5.672 4.437-8.672 3.766-3 10.453-3 6.485 0 10.64 4.484Q42 14.703 42 21.688q0 7.125-4.36 11.421-4.343 4.297-11.218 4.297-7.813 0-13.047-6.687l-7.563.39 5.266 37.594h36.438v-8.5H17.672z" id="HelveticaWorld-Regular-53"/></defs><use xlink:href="#HelveticaWorld-Regular-53"/><use x="55.615" xlink:href="#HelveticaWorld-Regular-48"/></g></g></g><g id="matplotlib.axis_2"><g id="ytick_1"><path clip-path="url(#p73d588ccaf)" d="M41.5 270.589h357.12" fill="none" stroke="#969696" stroke-linecap="square" stroke-width=".3" id="line2d_7"/><g id="line2d_8"><defs><path d="M0 0h-3.5" id="me51629d800" stroke="#969696" stroke-width=".3"/></defs><use x="41.5" xlink:href="#me51629d800" y="270.589" fill="#969696" stroke="#969696" stroke-width=".3"/></g><g transform="matrix(.14 0 0 -.14 7.2 275.613)" fill="#969696" id="text_7"><defs><path d="M54.594 21.578H4v7.328h50.594z" id="HelveticaWorld-Regular-8722"/></defs><use transform="translate(0 .173)" xlink:href="#HelveticaWorld-Regular-49"/><use transform="translate(55.615 .173)" xlink:href="#HelveticaWorld-Regular-48"/><use transform="matrix(.7 0 0 .7 112.146 36.781)" xlink:href="#HelveticaWorld-Regular-8722"/><use transform="matrix(.7 0 0 .7 153.161 36.781)" xlink:href="#HelveticaWorld-Regular-52"/></g></g><g id="ytick_2"><path clip-path="url(#p73d588ccaf)" d="M41.5 218.916h357.12" fill="none" stroke="#969696" stroke-linecap="square" stroke-width=".3" id="line2d_9"/><use x="41.5" xlink:href="#me51629d800" y="218.916" fill="#969696" stroke="#969696" stroke-width=".3" id="line2d_10"/><g transform="matrix(.14 0 0 -.14 7.2 223.94)" fill="#969696" id="text_8"><use transform="translate(0 .173)" xlink:href="#HelveticaWorld-Regular-49"/><use transform="translate(55.615 .173)" xlink:href="#HelveticaWorld-Regular-48"/><use transform="matrix(.7 0 0 .7 112.146 36.781)" xlink:href="#HelveticaWorld-Regular-8722"/><use transform="matrix(.7 0 0 .7 153.161 36.781)" xlink:href="#HelveticaWorld-Regular-51"/></g></g><g id="ytick_3"><path clip-path="url(#p73d588ccaf)" d="M41.5 167.243h357.12" fill="none" stroke="#969696" stroke-linecap="square" stroke-width=".3" id="line2d_11"/><use x="41.5" xlink:href="#me51629d800" y="167.243" fill="#969696" stroke="#969696" stroke-width=".3" id="line2d_12"/><g transform="matrix(.14 0 0 -.14 7.2 172.268)" fill="#969696" id="text_9"><use transform="translate(0 .173)" xlink:href="#HelveticaWorld-Regular-49"/><use transform="translate(55.615 .173)" xlink:href="#HelveticaWorld-Regular-48"/><use transform="matrix(.7 0 0 .7 112.146 36.781)" xlink:href="#HelveticaWorld-Regular-8722"/><use transform="matrix(.7 0 0 .7 153.161 36.781)" xlink:href="#HelveticaWorld-Regular-50"/></g></g><g id="ytick_4"><path clip-path="url(#p73d588ccaf)" d="M41.5 115.57h357.12" fill="none" stroke="#969696" stroke-linecap="square" stroke-width=".3" id="line2d_13"/><use x="41.5" xlink:href="#me51629d800" y="115.57" fill="#969696" stroke="#969696" stroke-width=".3" id="line2d_14"/><g transform="matrix(.14 0 0 -.14 7.2 120.595)" fill="#969696" id="text_10"><use transform="translate(0 .173)" xlink:href="#HelveticaWorld-Regular-49"/><use transform="translate(55.615 .173)" xlink:href="#HelveticaWorld-Regular-48"/><use transform="matrix(.7 0 0 .7 112.146 36.781)" xlink:href="#HelveticaWorld-Regular-8722"/><use transform="matrix(.7 0 0 .7 153.161 36.781)" xlink:href="#HelveticaWorld-Regular-49"/></g></g><g id="ytick_5"><path clip-path="url(#p73d588ccaf)" d="M41.5 63.897h357.12" fill="none" stroke="#969696" stroke-linecap="square" stroke-width=".3" id="line2d_15"/><use x="41.5" xlink:href="#me51629d800" y="63.897" fill="#969696" stroke="#969696" stroke-width=".3" id="line2d_16"/><g transform="matrix(.14 0 0 -.14 12.94 68.922)" fill="#969696" id="text_11"><use transform="translate(0 .173)" xlink:href="#HelveticaWorld-Regular-49"/><use transform="translate(55.615 .173)" xlink:href="#HelveticaWorld-Regular-48"/><use transform="matrix(.7 0 0 .7 112.146 36.781)" xlink:href="#HelveticaWorld-Regular-48"/></g></g><g id="ytick_6"><path clip-path="url(#p73d588ccaf)" d="M41.5 12.225h357.12" fill="none" stroke="#969696" stroke-linecap="square" stroke-width=".3" id="line2d_17"/><use x="41.5" xlink:href="#me51629d800" y="12.225" fill="#969696" stroke="#969696" stroke-width=".3" id="line2d_18"/><g transform="matrix(.14 0 0 -.14 12.94 17.25)" fill="#969696" id="text_12"><use transform="translate(0 .173)" xlink:href="#HelveticaWorld-Regular-49"/><use transform="translate(55.615 .173)" xlink:href="#HelveticaWorld-Regular-48"/><use transform="matrix(.7 0 0 .7 112.146 36.781)" xlink:href="#HelveticaWorld-Regular-49"/></g></g></g><path clip-path="url(#p73d588ccaf)" d="M41.5 12.225l6.493 15.71 6.493 9.315 6.493 6.668 6.493 5.133 6.493 4.04 6.494 3.153 6.493 2.396 6.493 1.755 6.493 1.234 6.493.837 6.493.55 6.493.351 6.493.22 6.493.136 6.493.082 6.493.05 6.494.03 6.493.018 6.493.01 6.493.008 6.493.004 6.493.004 6.493.003 6.493.003 6.493.004 6.493.006 6.493.009 6.494.016 6.493.029 6.493.056 6.493.112 6.493.225 6.493.455 6.493.914 6.493 1.763 6.493 3.145 6.493 4.953 6.493 6.77 6.494 8.184 6.493 9.124 6.493 9.726 6.493 10.146 6.493 10.478 6.493 10.774 6.493 11.057 6.493 11.336 6.493 11.617 6.493 11.901 6.493 12.189 6.494 12.48 6.493 12.775 6.493 13.077 6.493 13.382 6.493 13.691 6.493 14.008" fill="none" stroke="#1f77b4" stroke-linecap="square" stroke-width="1.5" id="line2d_19"/></g></g><defs><clipPath id="p73d588ccaf"><path d="M41.5 12.225h357.12v266.112H41.5z"/></clipPath></defs></svg>