<svg xmlns="http://www.w3.org/2000/svg" width="253.414" height="87.612"><path d="M73.482 86.732c-.9-.483-2.402-1.667-2.032-1.501.546.577-2.66-2.177-3.056-3.282-.444-1.398 3.912-4.043 4.634-4.326 4.953-2.018 9.374-3.654 14.812-4.522 3.162-.493 6.439-1.607 9.377-1.908 2.172-.259 4.401-.748 6.463-.988 5.27-.69 10.538-1.495 15.84-1.869 1.452-.098 4.584-.313 6.96-.479 2.376-.165 6.264-.408 8.64-.538 13.476-.935 27.06-.987 40.56-.524 12.773.497 18.623.824 22.32 1.247 5.436.622 20.505 1.15 21.727.762 3.715-1.18.148-5.79-7.807-10.09-2.698-1.62-5.458-3.241-7.65-5.524-.895-1.188-2.233-4.27-.978-5.312 1.046-.868 6.687-.29 9.205.943 2.954 1.446 3.239 1.234 1.58-1.178-4.412-6.412-3.482-12.226 1.923-12.03 1.054.037 1.27-.25 1.78-2.361.894-3.707.682-4.016-.473-4.564-.454-.215-1.24-.521-1.92-.795-1.592-.759-3.43-1.428-4.815-1.982-1.708-.69-2.904.282-5.078 5.01-.261.569-.695 1.17-.965 1.337-.27.167-1.16 1.561-1.98 3.1-3.9 7.315-10.285 9.26-9.286 2.826.313-2.02.017-1.77-.962-1.11-1.399.887-2.43 1.45-3.544 2.106-5.32 3.136-11.034 3.66-13.9 1.274-.321-.267-.964-.81-1.429-1.206-.878-.748-1.656-.935-2.068-.496-1.2 1.28-6.776 3.705-8.64 3.758-2.134.06-4.792-1.665-4.797-3.113-.005-1.72-.936-1.516-2.79-.006-1.865 1.52-3.45 2.708-3.912 2.973-1.583.644-4.883 1.13-6.247.017-1.198-1.084-1.301-5.093-.254-9.853 1.475-6.705.74-8.159-2.555-5.06-.97.912-2.726 2.506-3.9 3.542-2.136 1.884-2.136 1.884-1.588 4.257.526 2.283-.225 4.706-.717 6.119-1.065 1.648-2.82 4.465-4.842 4.582-2.397 0-2.675-4.712-.519-8.802 1.607-3.048 1.586-3.257-.345-3.469-1.62-.178-4.772 1.918-6.671 4.437-.654.86-1.44 1.829-2.074 2.605-.385.6-4.583 5.166-6.044 5.91-3.792 1.93-3.065-3.543.935-7.04 2.393-2.092 4.08-2.927 4.379-3.25.995-1.074 1.553-6.567.256-7.96-2.569-2.757-11.232 2.235-14.247 8.21-1.935 3.835-4.705 8.514-4.95 8.88-1.461 2.329-2.777 4.92-4.219 7.2-1.089 1.715-2.679 4.415-3.532 6-3.419 6.342-5.878 7.136-6.151 1.985.263-4.228 1.822-8.093 3.56-11.818.642-1.695 4.83-7.96 10.25-13.382 3.022-3.023 4.347-4.756 5.158-6.747 1.42-3.485 1.392-3.58-.515-1.79a173.079 173.079 0 01-6.825 6.071c-1.312.938-2.573 2.14-3.81 3.12-1.002.792-2.358 1.945-3.05 2.497-1.273.956-2.9 1.704-4.144 2.246-5.074 2.2-10.183-1.452-11.306-6.699-.205-.967-.893-4.215-1.406-5.004-.432-.664-3.743 2.856-4.308 3.738-.255.351-.724.901-1.391 1.8-1.455 1.788-2.064 3.878-3.377 5.701-.49.718-1.615 2.201-2.61 2.201-1.126 0 .118-4.185.919-5.794a70.54 70.54 0 011.173-2.766c.116-.245 2.606-6.455 3.525-8.21.509-1.143 1.12-2.363 1.536-3.415.879-3.203-.035-2.76-2.447-.157A59.073 59.073 0 0163 26.807c-1.827 1.06-3.546 2.138-5.32 3.2a75.378 75.378 0 01-6.032 3.193c-3.188 1.532-5.772 2.274-8.928 3.29-2.687.673-4.65 1.414-5.453 2.775-1.194 2.02-2.885 1.829-3.095-.351-.142-1.46-3.031-2.649-5.531-3.553-.264-.096-.09-.02-.593-.222-1.661-.668-3.386-1.25-5.479.666-1.36 1.203-3.334 2.247-4.67 3.078a49.867 49.867 0 01-6.019 2.539c-1.058.369-2.283.732-2.95.97C5.332 43.679 0 39.326 0 34.58c0-2.73 1.123-4.057 3.282-3.877 1.773.148 2.98 1.826 1.313 1.826-2.124 0 .176 7.414 2.48 7.992 1.791.45 6.242-.988 9.268-2.684 2.343-1.295 4.413-2.778 6.5-4.261.517-.546.86-1.5-.272-3.994-1.705-3.758-1.232-7.148 1.418-10.167 2.603-2.964 5.173-2.079 6.02 2.074.194 1.232.697 2.578 1.08 3.606.27.761.571.635 2.031-.854 13.582-13.86 12.862-13.22 14.768-13.144 3.223.13 2.808 2.07-2.942 13.752-1.408 3.513-4.037 6.866-4.937 10.41.737.736 15.868-6.23 17.989-7.606 1.99-1.183 3.996-2.538 5.736-3.949 1.485-1.205 7.156-5.93 11.337-10.495 2.61-2.85 5.703-1.933 4.242 1.258l-1.678 3.662c-.666 1.452-1.425 2.593-1.636 3.031-.405.74-.892 1.35-1.293 2.01-.378.985.74.912 1.883-.123 2.54-2.3 6.41-5.224 6.643-5.398 2.284-1.225 3.94-2.293 6.155-3.455.266-.106 1.516-.68 2.899-1.131 1.662-.54 3.357-1.407 4.914-1.8.792-.146 2.736-.6 4.32-1.007 1.584-.408 4.016-.865 5.451-1.143a264.71 264.71 0 003.151-.625c.294-.065.95-.226 1.478-.292.528-.067 2.58-.357 4.56-.644 1.98-.287 4.63-.59 5.785-.72.69-.08 2.305-.348 2.64-.397.327-.048 4.817-.699 15.335-1.54 2.376-.19 4.968-.404 5.76-.474 2.882-.259 19.34-1.325 29.52-1.913 2.772-.16 6.12-.394 7.44-.52 1.32-.125 4.56-.323 7.2-.438 6.719-.294 13.412-.668 16.8-.938 13.106-1.045 37.18-.48 38.14-.261.166.038 1.82.24 3.059.498 4.483.937 5.887 1.88 5.518 5.098-.163 1.43-1.2 1.97-2.692 1.397-.664-.255-.685-.376-.122-.724 2.053-1.269-1.077-2.31-9.343-3.108-1.056-.102-2.021-.26-2.16-.263-.163-.004-1.536-.056-3.12-.029s-7.76.118-13.723.203c-3.856.034-8.501.148-12.109.19-.481-.012-1.647-.16-9.208.376-2.64.187-5.88.403-7.2.479-6.63.708-13.317 1.015-19.996 1.426-.728.046-.917.08-1.348.11-.989.106-2.183.122-3.376.205-4.207.037-8.244.643-12.6.832-3.308.132-7.014.702-9.72.784-6.758.182-12.066.81-12.81.875-.534.046-2.66.297-3.702.407-1.734.183-4.572.452-6.288.64a165.4 165.4 0 01-4.8.465c-.924.066-1.576.209-1.68.226-.12.02-2.183.074-4.265.442-5.614.657-9.572 1.667-14.538 3.12-1.771.617-4.846 1.81-6.386 2.621-3.53 2.117-6.965 3.251-9.584 5.708-1.042.99-2.357 2.158-2.922 2.595-.846.653-.934.968-.501 1.778.29.54.668 2.343.841 4.005.626 6 2.922 9.328 6.087 8.825 2.35-.373 7.25-4.02 8.07-4.631.963-.734 1.994-1.387 2.714-2.037 3.684-3.364 9.328-8.709 11.428-10.82 3.166-3.185 4.653-2.449 3.52 1.742-.337 1.245-.814 2.524-1.06 2.842-.922 1.196.158 1.524 1.81.55.898-.373 2.048-.836 2.344-.99 3.672-1.915 10.663.009 11.19 3.93.233 1.742.372 1.916 1.277 1.596.558-.197 2.377-.315 4.042-.262 3.026.097 3.026.097 6.265-3.207 8.428-8.597 13.205-6.283 10.762 5.291-1.816 8.603-.671 9.723 4.857 4.836 2.537-1.759 3.743-4.025 5.227-6.703.308-.559 1.157-2.803 2.353-4.123 3.146-3.472 5.366-.474 2.435 3.288-1.982 2.545-3.057 9.305-1.498 9.426 1.824.142 3.436-.51 4.344-.863 1.79-.593 3.166-1.604 4.348-2.707.825-.772 1.323-1.739 1.327-2.578.018-3.262 3.484-9.404 5.653-10.015 3.748-1.057 5.218-.297 3.753 1.94-.475.86-1.119 1.962-1.493 2.652-1.11 1.944-2.538 3.354-3.6 5.28-.092.248-.48.824-.48 1.83 0 3.493 3.404 5.265 7.198 3.747 1.057-.423 1.436-.505 1.806-.634.652-.229 9.701-5.086 10.119-6.032 1.3-2.943 7.043-8.02 9.094-8.038 1.182-.01 1.783-.518 2.552-2.153 1.038-2.205 3.463-2.23 5.808-.057 3.783 3.505 8.073 3.256 8.768.962 1.834-5.981 13.659-15.078 17.823-12.297 7.556 5.045-6.735 22.113-15.221 18.18-1.936-.898-3.907 6.9-2.216 8.767 4.17 4.604 2.303 11.891-2.277 8.89-.64-.418-1.286-1.435-1.452-2.28-.42-2.15-1.255-3.685-2.003-3.685-1.179 0-.295 2.878 1.991 6.48a474.49 474.49 0 012.348 3.737c.454.735 1.896 2.105 3.204 3.045 2.5 1.796 2.857 2.425 1.64 2.892-3.095-.078-5.142-1.873-7.542-3.376-2.47-1.524-5.516-2.305-7.834-3.399-3.312-1.727-3.484-.332-.326 2.652 2.193 2.072 5.25 3.842 5.765 4.144.955.558 10.073 7.089 10.983 9.18 1.606 3.691-.094 4.461-10.148 4.594-10.538-.209-21.181-1.221-31.44-1.347-2.244-.023-4.226-.267-4.575-.282-10.906.29-20.037.028-30.797.74-2.322.159-8.63.809-13.66.942-2.567.184-5.282.522-7.547.867-2.17.354-4.51.795-6.4 1.07-4.022.666-7.244 1.353-11.082 1.989-3.236.697-6.547 1.392-8.979 1.787-4.487.937-7.91 1.845-12 3.409a168.3 168.3 0 01-2.336.834c-1.98.773-3.766 1.458-5.598 2.569-1.334.89-2.534 2.011-3.566 2.953-1.358 1.263-2.074 1.277-4.298.084zm19.049-30.564c1.018-2.046 2.574-5.016 3.458-6.6 1.284-2.242 2.561-4.491 3.966-6.66.702-1.125.444-2.296-.595-1.74-1.488 1.271-2.658 3.201-3.571 4.558-1.218 1.815-2.094 3.908-2.928 5.762-2.079 4.612-3.161 8.4-2.4 8.4.12 0 1.052-1.674 2.07-3.72zM221.27 44.762c.318-.332-.066-2.162-.705-3.711-.511-1.238-1.108-.59-.871.946.399 2.596.332 3.133.966 3.128.313-.002.436-.182.61-.363zm-88.84-2.754c.784-2.079 1.094-4.2.613-4.2-.574 0-2.09 4.27-1.726 4.86.409.661.676.503 1.114-.66zm68.856-8.568c.996-1.878 1.73-3.496 1.63-3.595-.414-.415-4.551 2.934-5.037 4.078-2.658 6.255-2.699 7.124-.222 4.706 1-.976 2.633-3.311 3.629-5.19zM38.373 30.728c2.112-3.91 3.941-8.471 5.859-12.02 1.288-2.438 1.158-3.43-.695-1.634-.87.844-1.694 1.398-1.83 1.534-.095.096-2.231 1.905-4.657 4.234-4.217 4.048-4.7 4.959-4.078 6.162.179.346.583 1.187 1.004 2.122 2.366 5.25 1.828 5.387 4.397-.398zm-5.585 2.727c-.722-1.156-1.408-2.477-2.068-3.625-.417-.849-.67-.817-1.705.326-1.128 1.247-.613 2.198 1.991 3.676 1.27.72 1.936.883 2.066.504.106-.308-.132-.599-.284-.88zm-4.541-4.703c1.23-1.068 1.27-2.124.165-4.384-1.683-3.442-3.18-.98-2.021 3.326.61 2.267.52 2.216 1.856 1.058zm203.345-2.541c2.458-1.265 3.847-2.787 5.31-5.822 2.945-6.102-.939-8.895-5.877-4.227-1.935 1.829-7.88 10.609-7.548 11.146.491.795 5.844.07 8.115-1.097z" fill="#333"/></svg>